<svg width="2667" height="2667" viewBox="0 0 2667 2667" fill="none" xmlns="http://www.w3.org/2000/svg">
<g id="University Life Illustration 1" clip-path="url(#clip0)">
<g id="Frame">
<path id="Vector" d="M1939.96 1557.38H1781.91V1391.8H1939.96C1950.33 1391.8 1958.73 1383.22 1958.73 1372.63C1958.73 1362.05 1950.33 1353.47 1939.96 1353.47H1781.91H1754.89H1663.29H1649.31H967.459C901.937 1353.47 848.82 1407.7 848.82 1474.6C848.82 1541.49 901.937 1595.73 967.459 1595.73H1649.31H1663.29H1754.89H1781.91H1939.96C1950.33 1595.73 1958.73 1587.14 1958.73 1576.55C1958.73 1565.97 1950.33 1557.38 1939.96 1557.38Z" fill="black"/>
</g>
<g id="g10">
<g id="g40">
<g id="g42">
<g id="g50">
<g id="g64">
<g id="g62" opacity="0.199997">
<g id="g60" opacity="0.199997">
<path id="path58" opacity="0.199997" d="M-77.1829 1763.63C-77.1829 1763.63 -136.778 1879.32 161.204 1854.77C459.185 1830.23 967.505 1763.63 967.505 1861.79C967.505 1959.94 974.515 1966.96 1332.09 1907.36C1689.67 1847.76 2786.94 1921.38 2695.8 2005.52C2604.65 2089.65 2313.68 2159.77 2313.68 2159.77L438.152 2478.78" fill="#2861A4"/>
</g>
</g>
</g>
</g>
</g>
</g>
<g id="g66">
<g id="g68">
<g id="g74">
<path id="path76" d="M2369 2115.26C2369 2124.59 2358.69 2132.16 2345.97 2132.16H-100.962C-113.677 2132.16 -124 2124.59 -124 2115.26C-124 2105.93 -113.677 2098.38 -100.962 2098.38H2345.97C2358.69 2098.38 2369 2105.93 2369 2115.26Z" fill="black"/>
</g>
<path id="path78" d="M368.992 2099.91H394.113V1982.39H368.992V2099.91Z" fill="#FDB740"/>
<path id="path80" d="M290.709 2099.91H476.839V2074.63H290.709V2099.91Z" fill="#FDB740"/>
</g>
</g>
<g id="g82">
<g id="g84">
<g id="g90">
<g id="g92">
<path id="path100" d="M174.942 1526.13C97.8449 1639.55 127.401 1794.56 240.829 1871.66C354.262 1948.77 509.268 1919.21 586.37 1805.79C663.473 1692.35 633.92 1537.34 520.488 1460.24C477.765 1431.2 429.165 1417.29 381.029 1417.29C301.364 1417.3 223.006 1455.42 174.942 1526.13Z" fill="url(#paint0_radial)"/>
</g>
</g>
</g>
</g>
<g id="g102">
<g id="g104">
<g id="g162">
<path id="path164" d="M565.203 1973.07L586.781 1959.93L197.584 1321.29L176 1334.44L565.203 1973.07Z" fill="#FDB740"/>
</g>
<g id="g110">
<g id="g124">
<g id="g122" opacity="0.199997">
<g id="g120" opacity="0.199997">
<path id="path118" opacity="0.199997" d="M647.924 1687.33C644.745 1649.33 649.457 1647.42 607.35 1629.03C565.24 1610.65 569.86 1618.91 561.397 1558.55C556.765 1525.48 553.074 1502.32 540.209 1489.1C527.297 1501.28 515.498 1515.01 505.126 1530.27C430.508 1640.05 455.788 1788.75 560.308 1868.11C564.738 1857.14 570.556 1842.4 578.209 1822.53C609.468 1741.39 651.106 1725.33 647.924 1687.33Z" fill="white"/>
</g>
</g>
</g>
</g>
<g id="g126">
<g id="g140">
<g id="g138" opacity="0.199997">
<g id="g136" opacity="0.199997">
<path id="path134" opacity="0.199997" d="M850.666 1464.39C791.672 1424.28 721.434 1413.05 656.754 1427.44C657.62 1459.77 713.375 1482.99 708.159 1518.38C701.075 1566.46 718.898 1542.75 788.6 1583.3C858.304 1623.85 807.051 1621.43 836.654 1680.81C861.151 1729.94 933.731 1706.6 958.055 1697.08C967.56 1608.61 929.254 1517.8 850.666 1464.39Z" fill="white"/>
</g>
</g>
</g>
</g>
<g id="g142">
<g id="g156">
<g id="g154" opacity="0.199997">
<g id="g152" opacity="0.199997">
<path id="path150" opacity="0.199997" d="M778.367 1764.05C752.278 1792.39 695.716 1802.79 695.716 1802.79C666.851 1867.86 745.518 1847.52 762.506 1830.06C779.496 1812.6 818.568 1820.39 834.391 1802.13C850.208 1783.87 804.456 1735.71 778.367 1764.05Z" fill="white"/>
</g>
</g>
</g>
</g>
<g id="g158">
<path id="path160" d="M378.549 1984.43C441.827 1984.43 503.14 1966.21 555.879 1931.75L542.049 1910.6C493.435 1942.36 436.9 1959.16 378.549 1959.16C213.528 1959.16 79.2707 1824.91 79.2707 1659.88C79.2707 1555.14 132.592 1459.79 221.905 1404.81L208.656 1383.29C111.816 1442.9 54 1546.3 54 1659.88C54 1838.84 199.588 1984.43 378.549 1984.43Z" fill="#FDB740"/>
</g>
<g id="g166">
<g id="g180">
<g id="g178" opacity="0.199997">
<g id="g176" opacity="0.199997">
<path id="path174" opacity="0.199997" d="M1954.79 1556.31H1793.58V1390.89H1954.79C1965.38 1390.89 1973.94 1382.31 1973.94 1371.73C1973.94 1361.16 1965.38 1352.59 1954.79 1352.59H1793.58H1766.01H1672.56H1658.31H962.768C895.933 1352.59 841.753 1406.76 841.753 1473.6C841.753 1540.43 895.933 1594.62 962.768 1594.62H1658.31H1672.56H1766.01H1793.58H1954.79C1965.38 1594.62 1973.94 1586.04 1973.94 1575.46C1973.94 1564.89 1965.38 1556.31 1954.79 1556.31Z" fill="#2861A4"/>
</g>
</g>
</g>
</g>
<g id="g182">
<path id="path184" d="M926.506 1473.6C926.506 1406.76 980.686 1352.59 1047.52 1352.59H962.768C895.933 1352.59 841.753 1406.76 841.753 1473.6C841.753 1540.43 895.933 1594.62 962.768 1594.62H1047.52C980.686 1594.62 926.506 1540.43 926.506 1473.6Z" fill="#FCA311"/>
</g>
<g id="g186">
<path id="path188" d="M1973.94 1575.46C1973.94 1564.89 1965.38 1556.31 1954.79 1556.31H1793.58V1390.89H1954.79C1965.38 1390.89 1973.94 1382.31 1973.94 1371.73C1973.94 1361.16 1965.38 1352.59 1954.79 1352.59H1793.58H1766.01H1672.56H1658.31H1167.39C1109.07 1352.59 1061.78 1406.76 1061.78 1473.6C1061.78 1540.43 1109.07 1594.61 1167.39 1594.61H1658.31H1672.56H1766.01H1793.58H1954.79C1965.38 1594.61 1973.94 1586.04 1973.94 1575.46Z" fill="#F7931D"/>
</g>
<g id="g190">
<path id="path192" d="M1973.94 1575.46C1973.94 1564.89 1965.38 1556.31 1954.79 1556.31H1793.58V1390.89H1954.79C1965.38 1390.89 1973.94 1382.31 1973.94 1371.73C1973.94 1361.16 1965.38 1352.59 1954.79 1352.59H1793.58H1766.01H1672.56H1658.31H1167.39C1109.07 1352.59 1061.78 1406.76 1061.78 1473.6C1061.78 1540.43 1109.07 1594.61 1167.39 1594.61H1658.31H1672.56H1766.01H1793.58H1954.79C1965.38 1594.61 1973.94 1586.04 1973.94 1575.46Z" fill="#FCA311"/>
</g>
<g id="g194">
<path id="path196" d="M1927.23 1381.03C1925.06 1380.88 1922.92 1380.7 1920.71 1380.7H1210.1C1158.79 1380.7 1117.2 1422.29 1117.2 1473.6C1117.2 1524.91 1158.79 1566.5 1210.1 1566.5H1920.71C1922.92 1566.5 1925.06 1566.32 1927.23 1566.16V1381.03Z" fill="white"/>
</g>
<path id="path198" d="M1857.26 1512.01H1239.98V1523.29H1857.26V1512.01Z" fill="black"/>
<path id="path200" d="M1864.12 1422.89H1246.85V1434.17H1864.12V1422.89Z" fill="black"/>
<path id="path202" d="M1616.39 1479.57H1313.42V1470.14H1616.39V1479.57Z" fill="black"/>
<g id="g204">
<path id="path206" d="M1710.13 1524.31L1679.22 1484.91L1646.06 1524.31V1422.89H1710.13V1524.31Z" fill="#FACE47"/>
</g>
<g id="g208">
<path id="path210" d="M717.109 1799.54H878.323V1634.11H717.109C706.522 1634.11 697.958 1625.53 697.958 1614.96C697.958 1604.38 706.522 1595.81 717.109 1595.81H878.323H905.887H999.333H1013.6H1709.13C1775.97 1595.81 1830.15 1649.99 1830.15 1716.82C1830.15 1783.66 1775.97 1837.84 1709.13 1837.84H1013.6H999.333H905.887H878.323H717.109C706.522 1837.84 697.958 1829.26 697.958 1818.68C697.958 1808.12 706.522 1799.54 717.109 1799.54Z" fill="#0A0A0A"/>
</g>
<g id="g212">
<path id="path214" d="M1745.39 1716.82C1745.39 1649.99 1691.22 1595.81 1624.38 1595.81H1709.13C1775.97 1595.81 1830.15 1649.99 1830.15 1716.82C1830.15 1783.66 1775.97 1837.84 1709.13 1837.84H1624.38C1691.22 1837.84 1745.39 1783.66 1745.39 1716.82Z" fill="#FCA311"/>
</g>
<g id="g216">
<g id="g234">
<g id="g232">
<g id="g226">
<path id="path224" d="M697.958 1818.69C697.958 1808.11 706.522 1799.54 717.108 1799.54H878.323V1634.11H717.108C706.522 1634.11 697.958 1625.53 697.958 1614.96C697.958 1604.38 706.522 1595.81 717.108 1595.81H878.323H905.888H999.333H1013.6H1504.5C1562.83 1595.81 1610.12 1649.99 1610.12 1716.82C1610.12 1783.66 1562.83 1837.84 1504.5 1837.84H1013.6H999.333H905.888H878.323H717.108C706.522 1837.84 697.958 1829.27 697.958 1818.69Z" fill="#F7931D"/>
</g>
<g id="g230">
<path id="path228" d="M697.958 1818.69C697.958 1808.11 706.522 1799.54 717.108 1799.54H878.323V1634.11H717.108C706.522 1634.11 697.958 1625.53 697.958 1614.96C697.958 1604.38 706.522 1595.81 717.108 1595.81H878.323H905.888H999.333H1013.6H1504.5C1562.83 1595.81 1610.12 1649.99 1610.12 1716.82C1610.12 1783.66 1562.83 1837.84 1504.5 1837.84H1013.6H999.333H905.888H878.323H717.108C706.522 1837.84 697.958 1829.27 697.958 1818.69Z" fill="#FCA311"/>
</g>
</g>
</g>
</g>
<g id="g236">
<path id="path238" d="M744.67 1624.26C746.839 1624.1 748.988 1623.93 751.192 1623.93H1461.8C1513.11 1623.93 1554.7 1665.51 1554.7 1716.82C1554.7 1768.13 1513.11 1809.72 1461.8 1809.72H751.192C748.988 1809.72 746.839 1809.54 744.67 1809.39V1624.26Z" fill="white"/>
</g>
<path id="path240" d="M814.645 1755.23H1431.92V1766.51H814.645V1755.23Z" fill="black"/>
<path id="path242" d="M807.778 1666.12H1425.05V1677.4H807.778V1666.12Z" fill="black"/>
<path id="path244" d="M1055.52 1722.79H1358.49V1713.37H1055.52V1722.79Z" fill="black"/>
<g id="g246">
<path id="path248" d="M961.765 1767.53L992.678 1728.14L1025.84 1767.53V1666.12H961.765V1767.53Z" fill="#F7931D"/>
</g>
<g id="g250">
<path id="path252" d="M892.935 1309.15H1054.15V1143.72H892.935C882.349 1143.72 873.783 1135.14 873.783 1124.57C873.783 1113.99 882.349 1105.41 892.935 1105.41H1054.15H1081.71H1175.16H1189.42H1884.96C1951.8 1105.41 2005.97 1159.6 2005.97 1226.43C2005.97 1293.27 1951.8 1347.45 1884.96 1347.45H1189.42H1175.16H1081.71H1054.15H892.935C882.349 1347.45 873.783 1338.87 873.783 1328.29C873.783 1317.72 882.349 1309.15 892.935 1309.15Z" fill="black"/>
</g>
<g id="g254">
<path id="path256" d="M1921.22 1226.43C1921.22 1159.6 1867.04 1105.41 1800.21 1105.41H1884.96C1951.8 1105.41 2005.97 1159.6 2005.97 1226.43C2005.97 1293.27 1951.8 1347.45 1884.96 1347.45H1800.21C1867.04 1347.45 1921.22 1293.27 1921.22 1226.43Z" fill="#FCA311"/>
</g>
<g id="g258">
<g id="g276">
<g id="g274">
<g id="g268">
<path id="path266" d="M873.784 1328.29C873.784 1317.72 882.348 1309.15 892.936 1309.15H1054.15V1143.72H892.936C882.348 1143.72 873.784 1135.14 873.784 1124.57C873.784 1113.99 882.348 1105.41 892.936 1105.41H1054.15H1081.71H1175.16H1189.42H1680.33C1738.66 1105.41 1785.94 1159.6 1785.94 1226.43C1785.94 1293.27 1738.66 1347.45 1680.33 1347.45H1189.42H1175.16H1081.71H1054.15H892.936C882.348 1347.45 873.784 1338.87 873.784 1328.29Z" fill="#F7931D"/>
</g>
<g id="g272">
<path id="path270" d="M873.784 1328.29C873.784 1317.72 882.348 1309.15 892.936 1309.15H1054.15V1143.72H892.936C882.348 1143.72 873.784 1135.14 873.784 1124.57C873.784 1113.99 882.348 1105.41 892.936 1105.41H1054.15H1081.71H1175.16H1189.42H1680.33C1738.66 1105.41 1785.94 1159.6 1785.94 1226.43C1785.94 1293.27 1738.66 1347.45 1680.33 1347.45H1189.42H1175.16H1081.71H1054.15H892.936C882.348 1347.45 873.784 1338.87 873.784 1328.29Z" fill="#FCA311"/>
</g>
</g>
</g>
</g>
<g id="g278">
<path id="path280" d="M920.497 1133.86C922.666 1133.71 924.815 1133.53 927.019 1133.53H1637.63C1688.94 1133.53 1730.53 1175.12 1730.53 1226.43C1730.53 1277.74 1688.94 1319.33 1637.63 1319.33H927.019C924.815 1319.33 922.666 1319.15 920.497 1319V1133.86Z" fill="white"/>
</g>
<path id="path282" d="M990.472 1264.84H1607.75V1276.11H990.472V1264.84Z" fill="black"/>
<path id="path284" d="M983.605 1175.72H1600.88V1187H983.605V1175.72Z" fill="black"/>
<path id="path286" d="M1231.35 1232.4H1534.31V1222.97H1231.35V1232.4Z" fill="black"/>
<g id="g288">
<path id="path290" d="M1137.59 1277.14L1168.5 1237.75L1201.66 1277.14V1175.72H1137.59V1277.14Z" fill="#F7931D"/>
</g>
<g id="g292">
<path id="path294" d="M1851.24 2050.75H1687.22V1882.44H1851.24C1862 1882.44 1870.72 1873.72 1870.72 1862.96C1870.72 1852.2 1862 1843.47 1851.24 1843.47H1687.22H1659.17H1564.11H1549.6H841.975C773.975 1843.47 718.851 1898.6 718.851 1966.6C718.851 2034.59 773.975 2089.72 841.975 2089.72H1549.6H1564.11H1659.17H1687.22H1851.24C1862 2089.72 1870.72 2080.99 1870.72 2070.23C1870.72 2059.47 1862 2050.75 1851.24 2050.75Z" fill="black"/>
</g>
<g id="g296">
<path id="path298" d="M805.08 1966.6C805.08 1898.6 860.203 1843.47 928.204 1843.47H841.975C773.976 1843.47 718.852 1898.6 718.852 1966.6C718.852 2034.59 773.976 2089.72 841.975 2089.72H928.204C860.203 2089.72 805.08 2034.59 805.08 1966.6Z" fill="#FCA311"/>
</g>
<g id="g300">
<path id="path302" d="M1870.72 2070.23C1870.72 2059.47 1862 2050.75 1851.24 2050.75H1687.22V1882.44H1851.24C1862 1882.44 1870.72 1873.72 1870.72 1862.96C1870.72 1852.2 1862 1843.47 1851.24 1843.47H1687.22H1659.17H1564.11H1549.6H1050.15C990.814 1843.47 942.709 1898.6 942.709 1966.6C942.709 2034.59 990.814 2089.72 1050.15 2089.72H1549.6H1564.11H1659.17H1687.22H1851.24C1862 2089.72 1870.72 2080.99 1870.72 2070.23Z" fill="#F7931D"/>
</g>
<g id="g304">
<path id="path306" d="M1870.72 2070.23C1870.72 2059.47 1862 2050.75 1851.24 2050.75H1687.22V1882.44H1851.24C1862 1882.44 1870.72 1873.72 1870.72 1862.96C1870.72 1852.2 1862 1843.47 1851.24 1843.47H1687.22H1659.17H1564.11H1549.6H1050.15C990.814 1843.47 942.709 1898.6 942.709 1966.6C942.709 2034.59 990.814 2089.72 1050.15 2089.72H1549.6H1564.11H1659.17H1687.22H1851.24C1862 2089.72 1870.72 2080.99 1870.72 2070.23Z" fill="#FCA311"/>
</g>
<g id="g308">
<path id="path310" d="M1823.19 1872.42C1820.99 1872.26 1818.8 1872.08 1816.56 1872.08H1093.6C1041.4 1872.08 999.086 1914.39 999.086 1966.6C999.086 2018.79 1041.4 2061.11 1093.6 2061.11H1816.56C1818.8 2061.11 1820.99 2060.93 1823.19 2060.77V1872.42Z" fill="white"/>
</g>
<path id="path312" d="M1752.01 2005.67H1124V2017.15H1752.01V2005.67Z" fill="black"/>
<path id="path314" d="M1758.99 1915.01H1130.99V1926.48H1758.99V1915.01Z" fill="black"/>
<path id="path316" d="M1506.96 1972.67H1198.72V1963.07H1506.96V1972.67Z" fill="black"/>
<g id="g318">
<path id="path320" d="M1602.33 2018.19L1570.88 1978.11L1537.14 2018.19V1915.01H1602.33V2018.19Z" fill="#FACE47"/>
</g>
</g>
</g>
<g id="g322">
<g id="g324">
<g id="g330">
<g id="g332">
<path id="path340" d="M1096.19 1581.12H1166.21C1166.21 1581.12 1162.44 1567.06 1173.41 1562.16C1171.4 1561.72 1169.26 1560.74 1166.9 1561.03C1137.8 1564.58 1129.96 1520.99 1129.96 1520.99L1102.29 1514.37L1096.19 1581.12Z" fill="#FCA311"/>
</g>
</g>
</g>
</g>
<g id="g342">
<g id="g344">
<g id="g350">
<path id="path352" d="M1198.8 1591.09L1198.15 1585.08C1198.22 1584.15 1198.23 1582.27 1197.6 1579.92C1196.07 1574.24 1190.76 1565.93 1173.42 1562.16C1162.44 1567.06 1166.21 1581.12 1166.21 1581.12H1096.2L1095.25 1591.25L1198.8 1591.09Z" fill="white"/>
</g>
<g id="g354">
<path id="path356" d="M1130.94 1549.4C1130.94 1554.81 1126.56 1559.19 1121.14 1559.19C1115.73 1559.19 1111.35 1554.81 1111.35 1549.4C1111.35 1543.99 1115.73 1539.6 1121.14 1539.6C1126.56 1539.6 1130.94 1543.99 1130.94 1549.4Z" fill="white"/>
</g>
</g>
</g>
<g id="left-leg-toe">
<g id="g358">
<g id="g360">
<g id="g366">
<g id="g368">
<path id="path376" d="M947.204 1556.76L1010.14 1587.44C1010.14 1587.44 1012.91 1573.16 1024.92 1573.56C1023.3 1572.28 1021.81 1570.46 1019.57 1569.69C991.848 1560.12 1003.91 1517.5 1003.91 1517.5L981.928 1499.43L947.204 1556.76Z" fill="#FCA311"/>
</g>
</g>
</g>
</g>
</g>
<g id="g378">
<g id="legs">
<g id="g380">
<g id="g386">
<path id="path388" d="M1035.06 1610.69L1037.11 1605C1037.58 1604.19 1038.42 1602.51 1038.88 1600.12C1039.99 1594.34 1038.86 1584.55 1024.92 1573.56C1012.91 1573.16 1010.14 1587.44 1010.14 1587.44L947.204 1556.76L941.912 1565.45L1035.06 1610.69Z" fill="white"/>
</g>
<g id="g390">
<path id="path392" d="M992.338 1543.47C989.967 1548.33 984.103 1550.36 979.238 1547.98C974.375 1545.61 972.355 1539.75 974.727 1534.88C977.098 1530.02 982.962 1528 987.826 1530.37C992.69 1532.74 994.709 1538.61 992.338 1543.47Z" fill="white"/>
</g>
<g id="g394">
<path id="path396" d="M1087.83 1221.21L1016.81 1142.83L1149.65 1133.01L1150.53 1352.48L1134.73 1527.08L1099.29 1527.5L1093.71 1343.66L1087.83 1221.21Z" fill="#050505"/>
</g>
<g id="g398">
<path id="path400" d="M1016.81 1142.83L1015.34 1375.84L970.929 1514.81L1002.28 1528.82L1066.28 1372.34L1097.63 1217.29L1129.96 1144.79" fill="#050505"/>
</g>
</g>
</g>
</g>
<g id="g402">
<g id="g404">
<g id="g410">
<g id="g412">
<path id="path424" d="M1271.03 860.196C1268.75 858.891 1275.44 844.359 1272.01 842.561C1268.59 840.767 1260.75 856.277 1260.75 856.277L1251.6 880.932L1268.09 910.648C1268.09 910.648 1299.93 871.788 1302.38 864.115C1304.83 856.441 1303.36 849.909 1303.36 841.583C1303.36 833.255 1292.1 832.765 1292.1 832.765C1292.1 832.765 1273.32 861.501 1271.03 860.196" fill="#FFDA8B"/>
</g>
</g>
</g>
</g>
<g id="g426">
<g id="g428">
<g id="g434">
<g id="g436">
<path id="path444" d="M1181.39 955.715L1113.31 929.752L1103.02 987.553L1206.87 995.391L1272.5 908.691L1250.46 879.3L1181.39 955.715Z" fill="#FCA311"/>
</g>
</g>
</g>
</g>
<g id="g446">
<g id="g448">
<g id="g454">
<path id="path456" d="M1054.64 869.136L1032.56 815.972L1105.33 788.609L1123.57 767.653L1111.15 827.614L1054.64 869.136Z" fill="#791028"/>
</g>
</g>
</g>
<g id="g458">
<g id="g460">
<g id="g466">
<g id="g468">
<path id="path480" d="M1061.08 935.317L1098.34 949.871L1093.69 883.509L1065.16 872.443L1061.08 935.317Z" fill="url(#paint1_linear)"/>
</g>
</g>
</g>
</g>
<g id="g482">
<g id="g484">
<g id="g490">
<g id="g492">
<path id="path504" d="M1057.01 834.601L1063.41 854.975L1059.92 856.143L1053.52 859.141C1053.52 859.141 1050.03 864.873 1056.43 875.935C1062.83 886.997 1071.56 883.509 1071.56 883.509C1071.56 883.509 1083.21 914.356 1111.15 910.283C1139.09 906.208 1111.15 827.615 1111.15 827.615L1057.01 834.601Z" fill="#FFDA8B"/>
</g>
</g>
</g>
</g>
<g id="g506">
<g id="g508">
<g id="g514">
<path id="path516" d="M1056.93 833.985C1056.93 833.985 1070.85 875.689 1083.56 884.43C1107.27 900.737 1124.48 878.751 1124.48 878.751C1124.48 878.751 1131.31 909.846 1110.52 912.155C1089.72 914.467 1072.82 915.57 1057.99 852.262L1056.93 833.985Z" fill="#791028"/>
</g>
<g id="g518">
<path id="path520" d="M1130.94 993.431L1083.55 1046.64L1025.9 986.546L1051.06 927.667H1074.71L1089.35 937.942L1092.18 927.667H1110.25L1130.94 993.431Z" fill="white"/>
</g>
</g>
</g>
<g id="g522">
<g id="g524">
<g id="g530">
<g id="g532">
<path id="path540" d="M1114.79 937.099L1098.89 968.349L1098.93 968.721L1098.63 967.373L1046.64 937.099L1052.21 927.089C1052.21 927.089 1027.6 938.973 1015.67 969.103C1009.97 983.487 1016.32 1019.64 1019.26 1057.6C1022.47 1099.15 1014.93 1145.69 1014.93 1145.69L1066.91 1150.75H1100.14L1138.16 1147.05L1151.19 1149.36L1131.59 959.96L1109.21 927.089L1114.79 937.099Z" fill="#FCA311"/>
</g>
</g>
</g>
</g>
<g id="g542">
<g id="g544">
<g id="g550">
<g id="g552">
<path id="path560" d="M1018.93 992.941C1018.93 992.941 1069.8 1090.11 1092.03 1093.32C1103.75 1095.26 1186.9 1064.12 1186.9 1064.12L1182.52 1052.42L1176.32 1035.89L1105.51 1051.51L1086.13 976.235C1086.13 976.235 1077.06 947.224 1044.4 945.265C1043.77 945.227 1043.15 945.208 1042.55 945.208C1012.02 945.207 1018.93 992.941 1018.93 992.941" fill="#FCA311"/>
</g>
</g>
</g>
</g>
<g id="g562">
<g id="g564">
<g id="g570">
<g id="g572">
<path id="path584" d="M1199.09 1010.93C1199.09 1010.93 1195.97 1005.81 1190.86 1011.23C1185.77 1016.67 1183.63 1036.83 1183.63 1036.83L1192.63 1056.44L1205.8 1052.6L1218.31 1045.32C1218.31 1045.32 1231.61 1035.68 1233.73 1026.02C1235.84 1016.34 1223.46 995.835 1218.41 995.341C1218.33 995.328 1218.25 995.328 1218.17 995.328C1212.91 995.327 1199.09 1010.93 1199.09 1010.93" fill="#FFDA8B"/>
</g>
</g>
</g>
</g>
<g id="g586">
<g id="g588">
<g id="g594">
<path id="path596" d="M2170.76 1707.83C2170.76 1707.83 2177.74 1736.27 2177.25 1737.77C2176.75 1739.26 2179.24 1757.22 2179.24 1757.22L2234.13 1759.23C2234.13 1759.23 2221.16 1745.25 2215.67 1742.75C2210.18 1740.26 2192.71 1701.84 2192.71 1701.84L2170.76 1707.83Z" fill="#FCA311"/>
</g>
<g id="g598">
<path id="path600" d="M2069.79 1706.76L2069.3 1761.16L2007.55 1761C2007.55 1761 2021.23 1742.71 2039.19 1740.28L2042.59 1708.7L2069.79 1706.76Z" fill="#FCA311"/>
</g>
<g id="g602">
<path id="path604" d="M2040.22 1110C2040.22 1110 2013.44 1119.79 2009.52 1138.08C2005.6 1156.37 1980.13 1451.58 1980.13 1451.58L2100.31 1449.62L2056.55 1137.43" fill="#FDB740"/>
</g>
<g id="g606">
<path id="path608" d="M2110.52 1295.65C2110.52 1295.65 2142.37 1324.86 2142.37 1372.1C2142.37 1419.33 2198.53 1712.2 2198.53 1712.2L2171.71 1716.49L2075.32 1417.83L2075.29 1419.4L2019.68 1309.91L2110.52 1295.65Z" fill="black"/>
</g>
<g id="g610">
<path id="path612" d="M2019.68 1309.91L2075.29 1419.4L2070.29 1717.35H2040.95L2016.22 1380.68L2017.48 1310.26L2019.68 1309.91Z" fill="black"/>
</g>
<g id="g614">
<path id="path616" d="M1939.71 1111.1L1948.99 1045.31L1964.07 1046.92L1959.23 1106.5L2022.84 1121L2011.62 1144.46C1993.63 1140.45 1960.2 1132.89 1950.5 1129.98C1937.01 1125.93 1939.71 1111.1 1939.71 1111.1Z" fill="#FDB740"/>
</g>
<g id="g618">
<path id="path620" d="M1923.81 1116.97C1927.84 1096.84 1941.52 1044.5 1941.52 1044.5L1948.99 1045.31L1939.71 1111.1C1939.71 1111.1 1937.01 1125.93 1950.5 1129.98C1960.2 1132.89 1993.63 1140.45 2011.62 1144.46L2008.2 1158.83L1935.89 1144.34C1935.89 1144.34 1919.78 1137.09 1923.81 1116.97Z" fill="#FDB740"/>
</g>
<g id="g622">
<path id="path624" d="M1733.16 992.958L1751.97 992.227L1747 1009.77L1731.38 999.21L1733.16 992.958Z" fill="#433072"/>
</g>
<g id="g626">
<path id="path628" d="M1751.97 992.227L1749.33 1001.56L1747 1009.77L1816.77 1056.95L1816.87 1056.67L1816.76 1056.64L1827.29 1019.7L1836.04 989.005L1836.14 989.026L1836.17 988.934L1751.97 992.227Z" fill="white"/>
</g>
<g id="g630">
<g id="g660">
<g id="g658" opacity="0.300003">
<g id="g656" opacity="0.300003">
<g id="g654" opacity="0.300003">
<g id="g652" opacity="0.300003">
<g id="g650" opacity="0.300003">
<path id="path648" opacity="0.300003" d="M1826.8 1019.37L1816.27 1056.31L1816.38 1056.34L1816.28 1056.63L1746.51 1009.45L1748.84 1001.23L1826.8 1019.37Z" fill="url(#paint2_linear)"/>
</g>
</g>
</g>
</g>
</g>
</g>
</g>
</g>
</g>
<g id="g662">
<g id="g664">
<g id="g670">
<g id="g672">
<path id="path680" d="M2293.67 1120.28L2284.21 1153.47L2274.78 1186.53L2268.18 1184.65C2270.32 1185.78 2272.61 1186.72 2275.05 1187.42C2293.59 1192.71 2312.92 1181.95 2318.21 1163.4C2318.23 1163.31 2318.25 1163.21 2318.28 1163.12C2323.38 1144.66 2312.66 1125.5 2294.19 1120.23C2292.99 1119.89 2291.8 1119.62 2290.6 1119.41L2293.67 1120.28Z" fill="url(#paint3_linear)"/>
</g>
</g>
</g>
</g>
<g id="g682">
<g id="g684">
<g id="g690">
<g id="g720">
<g id="g718" opacity="0.300003">
<g id="g716" opacity="0.300003">
<g id="g714" opacity="0.300003">
<g id="g712" opacity="0.300003">
<g id="g710" opacity="0.300003">
<path id="path708" opacity="0.300003" d="M2284.87 1154.12L2318.93 1163.77C2318.91 1163.86 2318.89 1163.96 2318.86 1164.05C2313.57 1182.61 2294.25 1193.36 2275.7 1188.07C2273.27 1187.37 2270.97 1186.44 2268.84 1185.3L2275.44 1187.18L2284.87 1154.12Z" fill="url(#paint4_linear)"/>
</g>
</g>
</g>
</g>
</g>
</g>
</g>
<g id="g722">
<path id="path724" d="M1836.04 989.004L1836.14 989.026L1828.26 1020.35L1828.44 1020.39L1827.53 1023.24L1826.79 1026.16L1826.62 1026.09L1816.87 1056.67L1816.76 1056.64L1836.04 989.004Z" fill="#FDB740"/>
</g>
<g id="g726">
<path id="path728" d="M2240.92 1104.44L2290.98 1118.72L2294.12 1119.62L2274.84 1187.25L2268.1 1185.33L2220.67 1171.8L2240.92 1104.44Z" fill="white"/>
</g>
<g id="g730">
<path id="path732" d="M1836.14 989.025L2240.92 1104.44L2234.01 1127.38L1829.27 1013.15L1836.14 989.025Z" fill="black"/>
</g>
<g id="g734">
<path id="path736" d="M2227.07 1150.49L2220.67 1171.8L1816.87 1056.67L1822.75 1036.01L2227.07 1150.49Z" fill="black"/>
</g>
<g id="g738">
<path id="path740" d="M1829.27 1013.15L2234.01 1127.38L2227.07 1150.49L1822.75 1036.01" fill="black"/>
</g>
</g>
</g>
<g id="g742">
<g id="g744">
<g id="g750">
<g id="g752">
<path id="path764" d="M2054.87 1249.84L2018.24 1262.32L2021.06 1314.65L2112.44 1293.31C2112.44 1293.31 2103.59 1274.8 2109.22 1255.07C2111.5 1247.08 2103.02 1244.71 2092.13 1244.71C2076.11 1244.71 2054.87 1249.84 2054.87 1249.84" fill="url(#paint5_linear)"/>
</g>
</g>
</g>
</g>
<g id="g766">
<g id="g768">
<g id="g774">
<g id="g776">
<path id="path788" d="M1934.2 1018.9C1935.43 1021.12 1933.6 1032.38 1940.64 1034.99C1947.68 1037.61 1970.43 1038.42 1974.45 1036.61C1978.48 1034.8 1978.68 1024.33 1967.41 1016.28C1967.41 1016.28 1955.69 1014.82 1946.11 1014.82C1938.61 1014.82 1932.43 1015.71 1934.2 1018.9" fill="url(#paint6_linear)"/>
</g>
</g>
</g>
</g>
<g id="g790">
<g id="g792">
<g id="g798">
<path id="path800" d="M2124.29 1042.28C2124.29 1042.28 2134.23 1084.97 2127.21 1107.63C2127.21 1107.63 2127.35 1111.45 2094.71 1112.26C2062.07 1113.07 2014.6 1094.46 2014.6 1094.46C2014.6 1094.46 2036.45 1067.48 2034.29 1046.98C2032.13 1026.48 2124.29 1042.28 2124.29 1042.28Z" fill="#791028"/>
</g>
<g id="g802">
<path id="path804" d="M2083.57 1063.16C2083.57 1070.31 2089.36 1076.11 2096.52 1076.11C2103.66 1076.11 2109.46 1070.31 2109.46 1063.16C2109.46 1056.01 2103.66 1050.21 2096.52 1050.21C2089.36 1050.21 2083.57 1056.01 2083.57 1063.16Z" fill="#FFDA8B"/>
</g>
</g>
</g>
<g id="g806">
<g id="g808">
<g id="g814">
<g id="g816">
<path id="path828" d="M2057.67 1067.3L2052.81 1119.64L2033.21 1120.53L2032.49 1164.42L2096.51 1165.85L2114.4 1125.21L2094.35 1122.69L2092.99 1063.59L2057.67 1067.3Z" fill="#FFDA8B"/>
</g>
</g>
</g>
</g>
<g id="g830">
<g id="g832">
<g id="g838">
<path id="path840" d="M2044 1006.52C2044 1006.52 2012.17 1043.74 2031.05 1068.56L2051.55 1021.08L2044 1006.52Z" fill="#791028"/>
</g>
</g>
</g>
<g id="g842">
<g id="g844">
<g id="g850">
<g id="g852">
<path id="path864" d="M2031.05 1066.58C2031.05 1066.58 2025.09 1104.77 2061.77 1096.85C2098.47 1088.94 2102.62 1038.21 2102.62 1038.21L2045.44 1014.79L2031.05 1066.58Z" fill="#FFDA8B"/>
</g>
</g>
</g>
</g>
<g id="g866">
<g id="g868">
<g id="g874">
<path id="path876" d="M2043.48 1020.86C2043.48 1020.86 2092.04 1059 2113.06 1060.47C2128.38 1061.53 2126.63 1054.24 2126.63 1054.24C2126.63 1054.24 2118.72 958.226 2043.19 1007.32L2043.48 1020.86Z" fill="#83142D"/>
</g>
<g id="g878">
<path id="path880" d="M2094.66 1110.34C2094.66 1110.34 2063.69 1146.77 2055.8 1144.96C2047.91 1143.14 2050.91 1113.28 2050.91 1113.28L2027.09 1125.42C2027.09 1125.42 2010.81 1168.13 2007.07 1189.02C2006.86 1190.16 2006.69 1191.24 2006.57 1192.24C2004.15 1211.57 2022.26 1221.23 2022.26 1221.23C2022.26 1221.23 2008.53 1337.94 2017.35 1353.62C2026.16 1369.29 2146.49 1365.4 2122.91 1303.5C2099.33 1241.6 2137.61 1132.5 2137.61 1132.5L2094.66 1110.34Z" fill="white"/>
</g>
<g id="g882">
<g id="g896">
<g id="g894">
<g id="g892">
<path id="path890" d="M2045.68 1192.47C2078.93 1182.14 2103.65 1175.84 2102.75 1190.22C2102.06 1201.24 2105.62 1264.65 2098.66 1282.92C2070.18 1285.99 2017.02 1364.56 2014.41 1345.62C2012.12 1293.36 2022.91 1221.87 2022.91 1221.87C2022.91 1221.87 2004.8 1212.21 2007.21 1192.88C2007.34 1191.89 2007.51 1190.8 2007.72 1189.66C2014.78 1194.28 2026.95 1198.29 2045.68 1192.47Z" fill="#F8FAFC"/>
</g>
</g>
</g>
</g>
<g id="g898">
<path id="path900" d="M2102.82 1112.13C2102.82 1112.13 2062.72 1281.03 2088.88 1368.96C2115.98 1460.07 2120.23 1455.17 2120.23 1455.17L2226.03 1418.92C2226.03 1418.92 2133.07 1197.89 2150.6 1147.55C2166.25 1102.57 2123.39 1124.86 2102.82 1112.13Z" fill="#FACE47"/>
</g>
</g>
</g>
<g id="g902">
<g id="g904">
<g id="g910">
<g id="g912">
<path id="path924" d="M2118.06 1285.56C2114.51 1287.52 2106.18 1295.6 2106.18 1295.6L2118.92 1304.3L2127.61 1287.77C2127.61 1287.77 2123.68 1285.04 2120.3 1285.04C2119.5 1285.03 2118.74 1285.19 2118.06 1285.56" fill="url(#paint7_linear)"/>
</g>
</g>
</g>
</g>
<g id="g926">
<g id="g928">
<g id="g934">
<g id="g936">
<path id="path948" d="M2123.1 1290.79L2113.77 1300.49L2140.26 1321.73L2147.47 1314.23C2155.65 1305.73 2156.82 1293.59 2150.09 1287.12C2147.32 1284.45 2143.64 1283.16 2139.7 1283.16C2134.07 1283.16 2127.91 1285.79 2123.1 1290.79Z" fill="url(#paint8_linear)"/>
</g>
</g>
</g>
</g>
<g id="g950">
<g id="g952">
<g id="g958">
<path id="path960" d="M2134.51 1276.95L2144.55 1267.89L2165.62 1284.54L2156.15 1297.11L2134.51 1276.95Z" fill="#FCA311"/>
</g>
<g id="g962">
<path id="path964" d="M2231.04 1189.07L2150.23 1125.51C2150.23 1125.51 2137.35 1133.19 2133.44 1143.97C2129.52 1154.74 2133.51 1164.95 2137.64 1171.36C2141.76 1177.76 2193.2 1210 2193.2 1210L2137.29 1270.74L2149.59 1281.95L2162.02 1294.5C2162.02 1294.5 2211.72 1238.19 2225.4 1220.47C2239.09 1202.76 2231.04 1189.07 2231.04 1189.07Z" fill="#FDB740"/>
</g>
<g id="g966">
<path id="path968" d="M1992.88 2038.65L2000.63 2003.41H2118.99L2111.24 2038.65H1992.88ZM2123.3 1983.82H2004.94L2012.69 1948.59H2131.06L2123.3 1983.82ZM2135.37 1928.99H2017.01L2024.76 1893.75H2143.13L2135.37 1928.99ZM2155.78 1836.23L2147.44 1874.16H2029.07L2037.42 1836.23H2155.78ZM2180.16 1771.02C2174.9 1769.86 2169.65 1773.2 2168.49 1778.48L2160.09 1816.63H2041.73L2049.2 1782.69C2050.36 1777.41 2047.02 1772.18 2041.74 1771.02C2036.46 1769.86 2031.23 1773.2 2030.07 1778.48L1959.05 2101.17C1957.89 2106.46 1961.23 2111.69 1966.52 2112.85C1967.23 2113 1967.93 2113.08 1968.63 2113.08C1973.13 2113.08 1977.18 2109.96 1978.19 2105.39L1988.56 2058.24H2106.93L2097.48 2101.17C2096.32 2106.46 2099.66 2111.69 2104.94 2112.85C2105.65 2113 2106.36 2113.08 2107.06 2113.08C2111.56 2113.08 2115.61 2109.96 2116.62 2105.39L2128.07 2053.35C2128.91 2051.9 2129.43 2050.24 2129.43 2048.45C2129.43 2048.15 2129.36 2047.87 2129.34 2047.57L2187.62 1782.69C2188.79 1777.41 2185.45 1772.18 2180.16 1771.02" fill="#FCA311"/>
</g>
<g id="g970">
<path id="path972" d="M2133.11 2113.98C2128.61 2113.98 2124.55 2110.86 2123.55 2106.28L2052.54 1783.59C2051.37 1778.31 2054.71 1773.08 2060 1771.92C2065.27 1770.76 2070.51 1774.1 2071.67 1779.38L2142.68 2102.07C2143.85 2107.36 2140.5 2112.58 2135.22 2113.75C2134.51 2113.9 2133.8 2113.98 2133.11 2113.98Z" fill="#FCA311"/>
</g>
<g id="g974">
<path id="path976" d="M2271.53 2113.98C2267.03 2113.98 2262.98 2110.86 2261.97 2106.28L2190.96 1783.59C2189.8 1778.31 2193.14 1773.08 2198.42 1771.92C2203.7 1770.76 2208.93 1774.1 2210.1 1779.38L2281.11 2102.07C2282.27 2107.36 2278.93 2112.58 2273.65 2113.75C2272.94 2113.9 2272.23 2113.98 2271.53 2113.98Z" fill="#FCA311"/>
</g>
<g id="g978">
<path id="path980" d="M2210.42 1837.13H2076.49C2071.07 1837.13 2066.69 1832.74 2066.69 1827.33C2066.69 1821.92 2071.07 1817.53 2076.49 1817.53H2210.42C2215.83 1817.53 2220.21 1821.92 2220.21 1827.33C2220.21 1832.74 2215.83 1837.13 2210.42 1837.13Z" fill="#FCA311"/>
</g>
<g id="g982">
<path id="path984" d="M2219.41 1894.65H2085.47C2080.06 1894.65 2075.68 1890.27 2075.68 1884.86C2075.68 1879.45 2080.06 1875.06 2085.47 1875.06H2219.41C2224.82 1875.06 2229.2 1879.45 2229.2 1884.86C2229.2 1890.27 2224.82 1894.65 2219.41 1894.65Z" fill="#FCA311"/>
</g>
<g id="g986">
<path id="path988" d="M2231.09 1949.48H2097.16C2091.75 1949.48 2087.36 1945.1 2087.36 1939.68C2087.36 1934.28 2091.75 1929.89 2097.16 1929.89H2231.09C2236.5 1929.89 2240.89 1934.28 2240.89 1939.68C2240.89 1945.1 2236.5 1949.48 2231.09 1949.48Z" fill="#FCA311"/>
</g>
<g id="g990">
<path id="path992" d="M2245.47 2004.31H2111.54C2106.13 2004.31 2101.74 1999.93 2101.74 1994.52C2101.74 1989.11 2106.13 1984.72 2111.54 1984.72H2245.47C2250.88 1984.72 2255.27 1989.11 2255.27 1994.52C2255.27 1999.93 2250.88 2004.31 2245.47 2004.31Z" fill="#FCA311"/>
</g>
<g id="g994">
<path id="path996" d="M2254.46 2059.14H2120.53C2115.12 2059.14 2110.73 2054.76 2110.73 2049.34C2110.73 2043.94 2115.12 2039.55 2120.53 2039.55H2254.46C2259.87 2039.55 2264.26 2043.94 2264.26 2049.34C2264.26 2054.76 2259.87 2059.14 2254.46 2059.14Z" fill="#FCA311"/>
</g>
<g id="g998">
<path id="path1000" d="M2005.47 1771.6C2005.47 1781.53 2013.52 1789.58 2023.45 1789.58H2215.81C2225.74 1789.58 2233.78 1781.53 2233.78 1771.6C2233.78 1761.67 2225.74 1753.62 2215.81 1753.62H2023.45C2013.52 1753.62 2005.47 1761.67 2005.47 1771.6Z" fill="black"/>
</g>
<g id="g1002">
<path id="path1004" d="M1560.14 1002.26C1560.14 1042.62 1527.42 1075.34 1487.07 1075.34C1446.71 1075.34 1414 1042.62 1414 1002.26C1414 961.913 1446.71 929.199 1487.07 929.199C1527.42 929.199 1560.14 961.913 1560.14 1002.26Z" fill="#010101"/>
</g>
</g>
</g>
<g id="g1006">
<g id="g1008">
<g id="g1014">
<g id="g1016">
<path id="path1026" d="M1388.27 855.341C1385.08 855.341 1382.51 857.921 1382.51 861.105V1035.61C1382.51 1038.8 1385.08 1041.39 1388.27 1041.39H1585.85C1589.04 1041.39 1591.63 1038.8 1591.63 1035.61V861.105C1591.63 857.921 1589.04 855.341 1585.85 855.341H1388.27Z" fill="#030303"/>
</g>
</g>
</g>
</g>
<g id="g1028">
<g id="g1030">
<g id="g1036">
<path id="path1038" d="M1567.83 940.882C1567.83 944.093 1565.23 946.697 1562.01 946.697H1410.67C1407.46 946.697 1404.86 944.093 1404.86 940.882C1404.86 937.678 1407.46 935.077 1410.67 935.077H1562.01C1565.23 935.077 1567.83 937.678 1567.83 940.882Z" fill="white"/>
</g>
<g id="g1040">
<path id="path1042" d="M1567.83 969.729C1567.83 972.941 1565.23 975.545 1562.01 975.545H1410.67C1407.46 975.545 1404.86 972.941 1404.86 969.729C1404.86 966.522 1407.46 963.921 1410.67 963.921H1562.01C1565.23 963.921 1567.83 966.522 1567.83 969.729Z" fill="white"/>
</g>
<g id="g1044">
<path id="path1046" d="M1567.83 998.573C1567.83 1001.78 1565.23 1004.39 1562.01 1004.39H1410.67C1407.46 1004.39 1404.86 1001.78 1404.86 998.573C1404.86 995.367 1407.46 992.763 1410.67 992.763H1562.01C1565.23 992.763 1567.83 995.367 1567.83 998.573Z" fill="white"/>
</g>
</g>
</g>
<g id="g1048">
<g id="g1050">
<g id="g1056">
<g id="g1058">
<path id="path1066" d="M1192.86 534.212C1192.86 645.863 1255.05 742.985 1346.69 792.832V832.265C1346.69 876.869 1382.85 913.028 1427.45 913.028H1546.67C1591.28 913.028 1627.44 876.869 1627.44 832.265V792.839C1719.08 742.985 1781.27 645.863 1781.27 534.212C1781.27 371.725 1649.55 240 1487.07 240C1324.58 240 1192.86 371.725 1192.86 534.212" fill="#FCA311"/>
</g>
</g>
</g>
</g>
<g id="g1068">
<g id="g1070">
<g id="g1076">
<g id="g1090">
<g id="g1088" opacity="0.399994">
<g id="g1086" opacity="0.399994">
<path id="path1084" opacity="0.399994" d="M1280.11 703.382C1280.11 703.382 1128.67 441.865 1367.84 291.877C1367.84 291.877 1192.38 504.947 1280.11 703.382Z" fill="white"/>
</g>
</g>
</g>
</g>
<g id="g1092">
<path id="path1094" d="M1586.33 613.03C1576.67 626.785 1556.98 636.621 1533.43 634.913C1538.67 611.525 1551.86 581.36 1567.09 575.533C1569.43 574.644 1576.54 571.918 1586.69 583.245C1593.91 591.306 1593.77 602.441 1586.33 613.03ZM1481.81 612.778C1474.34 612.778 1465.99 597.122 1465.99 576.169C1465.99 555.217 1474.34 539.558 1481.81 539.558C1489.26 539.558 1497.61 555.217 1497.61 576.169C1497.61 597.122 1489.26 612.778 1481.81 612.778V612.778ZM1376.15 613.03C1368.7 602.441 1368.57 591.306 1375.79 583.245C1382.09 576.21 1387.23 574.596 1390.77 574.596C1392.93 574.596 1394.5 575.197 1395.39 575.533C1410.61 581.36 1423.81 611.525 1429.05 634.913C1405.51 636.629 1385.82 626.785 1376.15 613.03V613.03ZM1595.99 574.918C1582.86 560.266 1570.6 560.833 1562.63 563.878C1541.71 571.878 1526.67 606.341 1521 632.972C1517.14 632.042 1513.2 630.794 1509.21 629.204L1494.3 620.556C1503.82 612.826 1510.09 596.273 1510.09 576.169C1510.09 548.184 1497.93 527.078 1481.81 527.078C1465.67 527.078 1453.52 548.184 1453.52 576.169C1453.52 596.909 1460.2 613.858 1470.22 621.25L1453.51 629.105C1449.44 630.746 1445.42 632.022 1441.47 632.972C1435.81 606.342 1420.77 571.878 1399.84 563.878C1391.88 560.833 1379.62 560.27 1366.5 574.918C1355.3 587.414 1355.09 604.77 1365.93 620.209C1377.99 637.358 1402.42 649.697 1431.14 647.253C1431.35 649.372 1431.47 651.344 1431.47 653.129V913.05H1443.94V653.129C1443.94 650.766 1443.79 648.141 1443.49 645.314C1448.37 644.196 1453.34 642.642 1458.35 640.609C1458.46 640.565 1458.56 640.52 1458.66 640.473L1483.58 628.76L1503.34 640.224C1503.59 640.369 1503.85 640.5 1504.12 640.609C1509.15 642.642 1514.11 644.196 1518.99 645.314C1518.69 648.141 1518.53 650.766 1518.53 653.129V913.05H1531.01V653.129C1531.01 651.344 1531.13 649.372 1531.35 647.253C1560.07 649.697 1584.48 637.358 1596.54 620.209C1607.39 604.77 1607.18 587.414 1595.99 574.918" fill="white"/>
</g>
<g id="g1096">
<g id="g1114">
<g id="g1112" opacity="0.399994">
<g id="g1106" opacity="0.399994">
<path id="path1104" opacity="0.399994" d="M1312.08 749.568C1285.61 735.173 1261.62 716.812 1240.85 695.323C1259.97 724.467 1284.13 749.997 1312.08 770.709V749.568Z" fill="#D1D3D4"/>
</g>
<g id="g1110" opacity="0.399994">
<path id="path1108" opacity="0.399994" d="M1698.57 329.728C1728.96 376.036 1746.66 431.416 1746.66 490.945C1746.66 602.597 1684.46 699.721 1592.82 749.573V788.999C1592.82 833.603 1556.66 869.76 1512.05 869.76H1392.84C1377.49 869.76 1363.14 865.477 1350.92 858.04C1361.67 890.001 1391.86 913.028 1427.45 913.028H1546.67C1591.28 913.028 1627.44 876.869 1627.44 832.265V792.839C1719.08 742.985 1781.27 645.863 1781.27 534.212C1781.27 454.755 1749.77 382.665 1698.57 329.728Z" fill="#D1D3D4"/>
</g>
</g>
</g>
</g>
</g>
</g>
<g id="left-chat">
<g id="g1116">
<g id="g1118">
<g id="g1124">
<g id="g1126">
<path id="path1136" d="M819.724 800.246L895.464 862.702V795.51L819.724 800.246Z" fill="#FCA311"/>
</g>
</g>
</g>
</g>
<g id="g1138">
<g id="g1140">
<g id="g1146">
<g id="g1148">
<path id="path1158" d="M572.813 621.556C543.761 621.556 520.213 645.107 520.213 674.156V763.335C520.213 792.386 543.761 815.934 572.813 815.934H928.183C957.231 815.934 980.783 792.386 980.783 763.335V674.156C980.783 645.107 957.231 621.556 928.183 621.556H572.813Z" fill="#FCA311"/>
</g>
</g>
</g>
</g>
<g id="g1160">
<g id="g1162">
<g id="g1168">
<path id="path1170" d="M906.094 677.453C906.094 679.992 904.036 682.052 901.496 682.052H588.817C586.276 682.052 584.219 679.992 584.219 677.453C584.219 674.913 586.276 672.854 588.817 672.854H901.496C904.036 672.854 906.094 674.913 906.094 677.453Z" fill="white"/>
</g>
<g id="g1172">
<path id="path1174" d="M906.094 716.64C906.094 719.179 904.036 721.239 901.496 721.239H588.817C586.276 721.239 584.219 719.179 584.219 716.64C584.219 714.101 586.276 712.041 588.817 712.041H901.496C904.036 712.041 906.094 714.101 906.094 716.64Z" fill="white"/>
</g>
<g id="g1176">
<path id="path1178" d="M906.094 755.827C906.094 758.366 904.036 760.426 901.496 760.426H588.817C586.276 760.426 584.219 758.366 584.219 755.827C584.219 753.287 586.276 751.229 588.817 751.229H901.496C904.036 751.229 906.094 753.287 906.094 755.827Z" fill="white"/>
</g>
</g>
</g>
</g>
<g id="g1180">
<g id="g1182">
<g id="g1188">
<g id="g1190">
<path id="path1200" d="M2225.79 994.712L2276.4 952.977L2225.79 949.815V994.712Z" fill="#FCA311"/>
</g>
</g>
</g>
</g>
<g id="g1224">
<g id="g1226">
<g id="g1232">
<path id="path1234" d="M2218.68 870.926C2218.68 872.622 2220.06 874 2221.76 874H2430.69C2432.39 874 2433.77 872.622 2433.77 870.926C2433.77 869.229 2432.39 867.853 2430.69 867.853H2221.76C2220.06 867.853 2218.68 869.229 2218.68 870.926Z" fill="white"/>
</g>
<g id="g1236">
<path id="path1238" d="M2218.68 897.112C2218.68 898.808 2220.06 900.185 2221.76 900.185H2430.69C2432.39 900.185 2433.77 898.808 2433.77 897.112C2433.77 895.416 2432.39 894.038 2430.69 894.038H2221.76C2220.06 894.038 2218.68 895.416 2218.68 897.112Z" fill="white"/>
</g>
<g id="right-chat">
<g id="g1202">
<g id="g1204">
<g id="g1210">
<g id="g1212">
<path id="path1222" d="M2203.92 833.576C2184.51 833.576 2168.78 849.312 2168.78 868.724V928.313C2168.78 947.727 2184.51 963.461 2203.92 963.461H2441.39C2460.8 963.461 2476.54 947.727 2476.54 928.313V868.724C2476.54 849.312 2460.8 833.576 2441.39 833.576H2203.92Z" fill="#FCA311"/>
</g>
</g>
</g>
</g>
<g id="g1240">
<path id="path1242" d="M2211 891.073C2211 892.769 2212.37 894.147 2214.07 894.147H2423.01C2424.71 894.147 2426.08 892.769 2426.08 891.073C2426.08 889.376 2424.71 888 2423.01 888H2214.07C2212.37 888 2211 889.376 2211 891.073Z" fill="white"/>
</g>
<g id="g1240_2">
<path id="path1242_2" d="M902 1698.07C902 1699.77 903.375 1701.15 905.072 1701.15H1114.01C1115.71 1701.15 1117.08 1699.77 1117.08 1698.07C1117.08 1696.38 1115.71 1695 1114.01 1695H905.072C903.375 1695 902 1696.38 902 1698.07Z" fill="white"/>
</g>
<g id="g1240_3">
<path id="path1242_3" d="M901.685 1693.3C901.685 1694.99 903.059 1696.37 904.757 1696.37H1113.69C1115.39 1696.37 1116.77 1694.99 1116.77 1693.3C1116.77 1691.6 1115.39 1690.22 1113.69 1690.22H904.757C903.059 1690.22 901.685 1691.6 901.685 1693.3Z" fill="white"/>
</g>
<g id="g1240_4">
<path id="path1242_4" d="M901.685 1693.3C901.685 1694.99 903.059 1696.37 904.757 1696.37H1113.69C1115.39 1696.37 1116.77 1694.99 1116.77 1693.3C1116.77 1691.6 1115.39 1690.22 1113.69 1690.22H904.757C903.059 1690.22 901.685 1691.6 901.685 1693.3Z" fill="white"/>
</g>
</g>
</g>
</g>
</g>
<path id="path1242_5" d="M2212 924.073C2212 925.769 2213.37 927.147 2215.07 927.147H2424.01C2425.71 927.147 2427.08 925.769 2427.08 924.073C2427.08 922.376 2425.71 921 2424.01 921H2215.07C2213.37 921 2212 922.376 2212 924.073Z" fill="white"/>
<path id="Vector 1" d="M32.9922 810.414C90.5291 865.181 149.51 915.789 210.351 966.49C215.699 970.947 218.823 976.568 224.54 979.427" stroke="white" stroke-width="3" stroke-linecap="round" stroke-linejoin="round"/>
<path id="Vector 2" d="M164.447 821.682C190.89 847.517 207.634 874.179 228.296 904.31" stroke="white" stroke-width="3" stroke-linecap="round" stroke-linejoin="round"/>
</g>
<defs>
<radialGradient id="paint0_radial" cx="0" cy="0" r="1" gradientUnits="userSpaceOnUse" gradientTransform="translate(380.659 1665.95) rotate(124.208) scale(248.736)">
<stop stop-color="#7EBFF4"/>
<stop offset="1" stop-color="#7378BC"/>
</radialGradient>
<linearGradient id="paint1_linear" x1="1079.71" y1="949.87" x2="1079.71" y2="872.442" gradientUnits="userSpaceOnUse">
<stop stop-color="#FFDA8B"/>
<stop offset="0.0959592" stop-color="#FFDA8B"/>
<stop offset="0.510106" stop-color="#FFDA8B"/>
<stop offset="1" stop-color="#F15D5D"/>
</linearGradient>
<linearGradient id="paint2_linear" x1="1824.99" y1="1034.13" x2="1744.69" y2="1024.29" gradientUnits="userSpaceOnUse">
<stop stop-color="white"/>
<stop offset="1" stop-color="#231F20"/>
</linearGradient>
<linearGradient id="paint3_linear" x1="2268.18" y1="1154.09" x2="2319.55" y2="1154.09" gradientUnits="userSpaceOnUse">
<stop stop-color="#F79420"/>
<stop offset="1" stop-color="#F04F36"/>
</linearGradient>
<linearGradient id="paint4_linear" x1="2317.45" y1="1175.87" x2="2270.7" y2="1170.14" gradientUnits="userSpaceOnUse">
<stop stop-color="white"/>
<stop offset="1" stop-color="#231F20"/>
</linearGradient>
<linearGradient id="paint5_linear" x1="2065.34" y1="1314.65" x2="2065.34" y2="1244.71" gradientUnits="userSpaceOnUse">
<stop stop-color="#FFDA8B"/>
<stop offset="0.0959592" stop-color="#FFDA8B"/>
<stop offset="0.510106" stop-color="#FFDA8B"/>
<stop offset="1" stop-color="#F15D5D"/>
</linearGradient>
<linearGradient id="paint6_linear" x1="1933.89" y1="1026.2" x2="1976.97" y2="1026.2" gradientUnits="userSpaceOnUse">
<stop stop-color="#FFDA8B"/>
<stop offset="0.0959592" stop-color="#FFDA8B"/>
<stop offset="0.510106" stop-color="#FFDA8B"/>
<stop offset="1" stop-color="#F15D5D"/>
</linearGradient>
<linearGradient id="paint7_linear" x1="2097.42" y1="1294.67" x2="2127.61" y2="1294.67" gradientUnits="userSpaceOnUse">
<stop stop-color="#FFDA8B"/>
<stop offset="0.0959592" stop-color="#FFDA8B"/>
<stop offset="0.510106" stop-color="#FFDA8B"/>
<stop offset="1" stop-color="#F15D5D"/>
</linearGradient>
<linearGradient id="paint8_linear" x1="2154.46" y1="1302.44" x2="2105.54" y2="1302.44" gradientUnits="userSpaceOnUse">
<stop stop-color="#FFDA8B"/>
<stop offset="0.0959592" stop-color="#FFDA8B"/>
<stop offset="0.510106" stop-color="#FFDA8B"/>
<stop offset="1" stop-color="#F15D5D"/>
</linearGradient>
<clipPath id="clip0">
<rect width="2666.67" height="2666.67" fill="white"/>
</clipPath>
</defs>
</svg>
