<svg width="937" height="643" viewBox="0 0 937 643" fill="none" xmlns="http://www.w3.org/2000/svg">
<g id="Frame" clip-path="url(#clip0)">
<path id="Vector" d="M531.586 201.467C530.702 203.555 529.838 205.695 529.018 207.829L526.872 207.004C527.701 204.846 528.575 202.683 529.468 200.571L531.586 201.467Z" fill="#E6E6E6"/>
<path id="Vector_2" d="M908.897 353.843C907.788 356.728 906.605 359.612 905.38 362.416L903.273 361.496C905.107 357.297 906.836 352.941 908.389 348.604L910.554 349.381C910.02 350.869 909.468 352.357 908.897 353.843ZM914.837 336.026L912.624 335.399C913.882 330.961 915 326.433 915.948 321.938L918.198 322.413C917.239 326.958 916.109 331.538 914.837 336.026ZM899.34 375.07C897.188 379.208 894.869 383.317 892.447 387.283L890.486 386.084C892.879 382.163 895.172 378.101 897.299 374.009L899.34 375.07ZM920.618 308.601L918.34 308.281C918.978 303.723 919.465 299.083 919.786 294.492L922.08 294.652C921.755 299.297 921.263 303.99 920.618 308.601V308.601ZM884.73 398.993C882.037 402.788 879.175 406.54 876.224 410.143L874.445 408.687C877.363 405.123 880.192 401.414 882.855 397.661L884.73 398.993ZM922.575 280.636L920.276 280.635C920.279 276.033 920.122 271.375 919.811 266.791L922.105 266.636C922.42 271.271 922.578 275.981 922.575 280.636L922.575 280.636ZM866.954 420.696C863.754 424.094 860.399 427.419 856.981 430.579L855.419 428.891C858.798 425.766 862.116 422.478 865.28 419.119L866.954 420.696ZM920.673 252.698L918.395 253.011C917.766 248.451 916.973 243.856 916.035 239.355L918.286 238.886C919.234 243.438 920.037 248.085 920.673 252.698V252.698ZM846.354 439.751C842.72 442.675 838.943 445.508 835.126 448.17L833.811 446.284C837.584 443.652 841.32 440.851 844.914 437.959L846.354 439.751ZM914.96 225.268L912.747 225.889C911.502 221.456 910.09 217.011 908.547 212.677L910.713 211.905C912.274 216.29 913.703 220.785 914.96 225.268V225.268ZM823.349 455.8C819.359 458.196 815.232 460.486 811.082 462.608L810.036 460.56C814.138 458.462 818.219 456.198 822.166 453.828L823.349 455.8ZM905.563 198.86L903.455 199.777C901.619 195.554 899.615 191.34 897.496 187.252L899.538 186.194C901.68 190.328 903.707 194.59 905.563 198.86V198.86ZM798.383 468.562C794.1 470.395 789.7 472.102 785.308 473.638L784.55 471.467C788.893 469.949 793.242 468.26 797.477 466.448L798.383 468.562ZM892.659 173.965L890.695 175.158C888.305 171.228 885.745 167.325 883.086 163.558L884.964 162.233C887.654 166.042 890.242 169.989 892.659 173.965ZM771.922 477.81C767.432 479.044 762.843 480.136 758.285 481.058L757.828 478.804C762.336 477.892 766.873 476.812 771.314 475.593L771.922 477.81ZM876.48 151.052L874.698 152.503C871.788 148.928 868.717 145.411 865.569 142.047L867.248 140.477C870.432 143.879 873.538 147.436 876.48 151.052H876.48ZM744.461 483.366C739.848 483.974 735.155 484.43 730.514 484.719L730.371 482.425C734.96 482.138 739.6 481.688 744.161 481.087L744.461 483.366ZM857.309 130.559L855.743 132.243C852.368 129.102 848.84 126.038 845.257 123.137L846.704 121.35C850.328 124.284 853.897 127.382 857.309 130.559V130.559ZM716.514 485.111C711.856 485.081 707.141 484.887 702.5 484.536L702.674 482.243C707.263 482.59 711.923 482.782 716.529 482.812L716.514 485.111ZM835.503 112.907L834.182 114.79C830.411 112.147 826.501 109.602 822.561 107.226L823.748 105.258C827.733 107.66 831.688 110.234 835.503 112.907L835.503 112.907ZM688.561 482.993C683.955 482.322 679.312 481.482 674.761 480.495L675.249 478.248C679.748 479.223 684.338 480.054 688.892 480.718L688.561 482.993ZM811.498 98.4348L810.448 100.48C806.358 98.3825 802.137 96.3968 797.902 94.5766L798.81 92.4647C803.092 94.3043 807.361 96.3131 811.498 98.4348ZM661.166 477.055C656.702 475.762 652.217 474.296 647.837 472.699L648.625 470.538C652.957 472.118 657.391 473.568 661.806 474.847L661.166 477.055ZM784.981 89.5356C780.634 88.0041 776.184 86.6039 771.754 85.3741L772.369 83.159C776.849 84.4023 781.349 85.8181 785.746 87.366L784.981 89.5356ZM758.274 82.1244C753.757 81.2 749.158 80.4208 744.602 79.8101L744.908 77.5317C749.515 78.149 754.167 78.9364 758.736 79.8722L758.274 82.1244ZM730.804 78.4444C726.214 78.1501 721.556 78.0111 716.96 78.033L716.949 75.7338C721.598 75.7119 726.309 75.8519 730.951 76.1506L730.804 78.4444ZM703.117 78.5779C698.524 78.9174 693.888 79.421 689.34 80.0733L689.013 77.7971C693.614 77.1372 698.302 76.6286 702.947 76.285L703.117 78.5779ZM675.694 82.5104C671.187 83.4759 666.661 84.6087 662.245 85.8747L661.611 83.6657C666.077 82.384 670.654 81.2384 675.212 80.2613L675.694 82.5104ZM649.054 90.1512C644.726 91.7183 640.396 93.4554 636.183 95.3146L635.254 93.2113C639.515 91.3309 643.894 89.5742 648.271 87.9884L649.054 90.1512ZM623.692 101.345C619.611 103.49 615.556 105.801 611.639 108.213L610.433 106.255C614.394 103.816 618.496 101.478 622.622 99.3097L623.692 101.345ZM600.081 115.886C596.329 118.569 592.626 121.412 589.075 124.336L587.612 122.562C591.204 119.604 594.949 116.729 598.745 114.015L600.081 115.886ZM578.673 133.524C575.323 136.693 572.044 140.018 568.926 143.406L567.234 141.849C570.388 138.422 573.705 135.059 577.092 131.853L578.673 133.524ZM559.883 153.939C557.007 157.534 554.22 161.275 551.599 165.06L549.708 163.751C552.36 159.923 555.179 156.139 558.087 152.503L559.883 153.939ZM544.101 176.725C541.75 180.678 539.503 184.767 537.423 188.878L535.371 187.839C537.475 183.681 539.747 179.547 542.125 175.55L544.101 176.725Z" fill="#E6E6E6"/>
<path id="Vector_3" d="M635.454 465.214L634.519 467.314C632.398 466.371 630.282 465.386 628.23 464.388L629.235 462.321C631.264 463.307 633.356 464.281 635.454 465.214Z" fill="#E6E6E6"/>
<path id="Vector_4" d="M569 290.694H19V641.528H569V290.694Z" fill="#FCA311"/>
<path id="Vector_5" d="M495.227 641.205C494.963 640.774 488.742 630.387 486.586 608.818C484.607 589.029 485.879 555.673 503.178 509.145C535.95 421.001 495.626 349.882 495.214 349.173L497.203 348.019C497.307 348.199 507.713 366.331 513.859 395.205C521.981 433.485 519.024 473.287 505.334 509.947C472.618 597.941 496.94 639.596 497.19 640.007L495.227 641.205Z" fill="#E6E6E6"/>
<path id="Vector_6" d="M482.413 343.998C490.667 343.998 497.358 337.306 497.358 329.052C497.358 320.798 490.667 314.107 482.413 314.107C474.158 314.107 467.467 320.798 467.467 329.052C467.467 337.306 474.158 343.998 482.413 343.998Z" fill="black"/>
<path id="Vector_7" d="M529.548 399.18C537.802 399.18 544.493 392.489 544.493 384.235C544.493 375.981 537.802 369.29 529.548 369.29C521.294 369.29 514.603 375.981 514.603 384.235C514.603 392.489 521.294 399.18 529.548 399.18Z" fill="black"/>
<path id="Vector_8" d="M497.358 435.969C505.612 435.969 512.303 429.278 512.303 421.024C512.303 412.77 505.612 406.078 497.358 406.078C489.104 406.078 482.413 412.77 482.413 421.024C482.413 429.278 489.104 435.969 497.358 435.969Z" fill="black"/>
<path id="Vector_9" d="M536.446 467.009C544.7 467.009 551.391 460.318 551.391 452.064C551.391 443.81 544.7 437.119 536.446 437.119C528.192 437.119 521.5 443.81 521.5 452.064C521.5 460.318 528.192 467.009 536.446 467.009Z" fill="black"/>
<path id="Vector_10" d="M485.861 515.294C494.116 515.294 500.807 508.603 500.807 500.349C500.807 492.095 494.116 485.404 485.861 485.404C477.607 485.404 470.916 492.095 470.916 500.349C470.916 508.603 477.607 515.294 485.861 515.294Z" fill="black"/>
<path id="Vector_11" d="M504.256 641.755C504.256 641.755 489.31 604.967 534.147 577.375L504.256 641.755Z" fill="#E6E6E6"/>
<path id="Vector_12" d="M485.875 641.088C485.875 641.088 479.074 601.966 426.429 602.302L485.875 641.088Z" fill="#E6E6E6"/>
<g id="Wheel-1">
<path id="Vector_13" d="M336.432 368.985C348.215 374.16 358.961 381.43 368.149 390.442L377.376 381.214C366.565 370.586 353.825 362.119 339.84 356.267L336.432 368.985Z" fill="black"/>
<path id="Vector_14" d="M193.027 433.844C197.423 420.147 204.561 407.488 214.006 396.638L204.763 387.395C193.721 399.887 185.431 414.563 180.433 430.469L193.027 433.844Z" fill="black"/>
<path id="Vector_15" d="M388.648 393.984L379.331 403.301C386.524 413.038 391.992 423.939 395.495 435.527L408.076 432.156C403.97 418.359 397.387 405.424 388.648 393.984V393.984Z" fill="black"/>
<path id="Vector_16" d="M216.891 375.481L226.149 384.739C237.035 375.635 249.641 368.812 263.217 364.675L259.846 352.094C244.06 356.825 229.431 364.789 216.891 375.481V375.481Z" fill="black"/>
<path id="Vector_17" d="M188 466.111C188 460.855 188.389 455.607 189.165 450.409L176.531 447.024C173.91 463.263 174.66 479.868 178.735 495.804L191.31 492.435C189.107 483.834 187.995 474.99 188 466.111Z" fill="black"/>
<path id="Vector_18" d="M320.122 568.851C311.584 571.02 302.809 572.116 294 572.111C290.737 572.111 287.51 571.955 284.321 571.665L280.911 584.391C295.167 585.962 309.59 584.957 323.491 581.425L320.122 568.851Z" fill="black"/>
<path id="Vector_19" d="M196.874 508.543L184.156 511.951C190.284 526.595 199.275 539.867 210.603 550.988L219.83 541.76C210.129 532.254 202.336 520.979 196.874 508.543V508.543Z" fill="black"/>
<path id="Vector_20" d="M411.739 448.775L399.082 452.166C400.597 463.617 400.235 475.238 398.011 486.573L410.61 489.949C413.358 476.392 413.739 462.462 411.739 448.775H411.739Z" fill="black"/>
<path id="Vector_21" d="M279.847 361.058C293.366 359.241 307.108 360.043 320.324 363.421L323.693 350.846C308.266 346.903 292.208 346.072 276.456 348.401L279.847 361.058Z" fill="black"/>
<path id="Vector_22" d="M267.5 568.757C255.098 565.547 243.384 560.107 232.929 552.703L223.588 562.044C235.75 570.998 249.511 577.544 264.131 581.33L267.5 568.757Z" fill="black"/>
<path id="Vector_23" d="M374.299 553.931L365.062 544.694C356.527 552.424 346.793 558.714 336.24 563.321L339.646 576.035C352.391 570.731 364.117 563.252 374.299 553.931V553.931Z" fill="black"/>
<path id="Vector_24" d="M393.399 502.937C389.445 513.557 383.815 523.474 376.721 532.311L386 541.59C394.648 531.068 401.422 519.138 406.028 506.321L393.399 502.937Z" fill="black"/>
</g>
<path id="Vector_25" d="M89 310H31V333H89V310Z" fill="#FFFAFA"/>
<path id="Vector_26" d="M90 344.611H32V367.611H90V344.611Z" fill="#F9F6F2"/>
<path id="Vector_27" d="M381.969 79.7358C381.969 79.7358 388.501 101.199 384.768 107.731C381.035 114.263 391.3 128.26 408.097 121.728C424.894 115.196 425.827 107.731 425.827 107.731C425.827 107.731 419.295 97.4659 417.429 76.0031L381.969 79.7358Z" fill="#FFB9B9"/>
<path id="Vector_28" d="M405.764 348.02C405.764 348.02 406.697 374.149 407.63 384.413C408.4 392.882 400.913 416.593 403.509 442.973C405.094 460.039 404.904 477.224 402.944 494.251L399.232 528.12L427.227 530.92L436.559 454.401C436.559 454.401 442.157 400.277 439.358 382.547L440.291 345.221C440.291 345.221 419.762 337.755 405.764 348.02Z" fill="#FFB9B9"/>
<path id="Vector_29" d="M355.84 239.307C355.84 239.307 290.519 281.299 289.585 294.363C289.585 294.363 326.912 290.631 327.845 323.291C327.845 323.291 350.241 314.893 355.84 313.026C361.439 311.16 391.3 291.564 391.3 291.564C391.3 291.564 403.431 300.895 403.431 315.826C403.431 330.756 402.498 356.885 403.431 358.751C404.364 360.618 425.827 333.556 443.557 356.885L455.688 292.497C455.688 292.497 459.421 253.304 451.956 250.504L399.699 230.908L355.84 239.307Z" fill="black"/>
<path id="Vector_30" d="M395.499 91.4003C410.961 91.4003 423.494 78.8666 423.494 63.4054C423.494 47.9443 410.961 35.4106 395.499 35.4106C380.038 35.4106 367.504 47.9443 367.504 63.4054C367.504 78.8666 380.038 91.4003 395.499 91.4003Z" fill="#FFB9B9"/>
<path id="Vector_31" d="M388.501 112.396C388.501 112.396 420.077 120.736 424.352 104.902C424.352 104.902 463.154 112.396 469.686 137.592C476.218 162.787 453.822 223.443 453.822 225.309C453.822 227.175 472.485 238.373 464.087 243.972C455.688 249.571 448.223 243.039 451.956 250.505C455.688 257.97 462.221 259.836 456.622 261.702C451.023 263.569 417.429 234.641 391.3 242.106C365.172 249.571 352.107 243.972 352.107 243.972L340.391 142.713C339.934 138.834 340.455 134.902 341.908 131.276C343.361 127.65 345.698 124.445 348.708 121.955C354.556 117.141 362.315 111.941 369.837 110.53C384.768 107.731 385.388 106.198 385.388 106.198L388.501 112.396Z" fill="#FCA311"/>
<path id="Vector_32" d="M358.639 275.7C358.639 275.7 367.038 323.291 378.236 316.759C389.434 310.227 375.436 275.7 375.436 275.7H358.639Z" fill="#FFB9B9"/>
<path id="Vector_33" d="M397.622 281.859C397.622 281.859 383.07 327.942 396.019 327.326C408.969 326.71 412.517 289.623 412.517 289.623L397.622 281.859Z" fill="#FFB9B9"/>
<path id="Vector_34" d="M406.697 521.588C406.697 521.588 400.121 523.508 400.61 515.549C400.61 515.549 376.836 528.12 383.368 537.452C389.9 546.784 397.366 556.115 397.366 556.115C397.366 556.115 431.893 575.712 434.692 571.046C437.492 566.38 437.492 557.048 435.625 553.316C433.759 549.583 424.427 543.051 427.227 537.452C430.026 531.853 426.294 516.922 421.628 516.922C416.962 516.922 406.697 521.588 406.697 521.588Z" fill="#2F2E41"/>
<path id="Vector_35" d="M371.069 39.6841C371.069 39.6841 380.074 20.1718 397.335 24.6746C414.596 29.1775 424.352 35.9317 425.103 42.6859C425.853 49.4402 424.727 59.5716 424.727 59.5716C424.727 59.5716 422.851 45.6878 410.844 48.6897C398.836 51.6916 380.074 49.4402 380.074 49.4402L377.072 76.4572C377.072 76.4572 373.695 71.5791 369.943 74.581C366.191 77.5829 359.061 45.6878 371.069 39.6841Z" fill="#2F2E41"/>
<path id="Vector_36" d="M453.822 136.659C453.822 136.659 431.426 197.314 433.292 204.78C435.159 212.245 433.292 213.178 430.493 215.044C427.693 216.911 420.228 236.507 420.228 236.507C420.228 236.507 415.562 247.705 411.83 250.505C408.097 253.304 408.097 260.769 408.097 260.769C408.097 260.769 398.765 270.101 400.632 271.967C402.498 273.834 402.498 276.633 398.765 279.433C395.033 282.232 391.3 285.965 393.166 286.898C395.033 287.831 408.097 298.096 411.83 297.163C415.562 296.229 409.963 292.497 414.629 290.631C419.295 288.764 422.094 285.965 420.228 285.032C418.362 284.098 412.763 284.098 418.362 282.232C423.961 280.366 443.557 268.235 450.089 253.304C456.621 238.373 487.919 148.04 469.004 135.351C469.004 135.351 461.287 125.461 453.822 136.659Z" fill="#FCA311"/>
<path id="Vector_37" d="M350.241 126.394L349.862 126.552C346.337 128.022 343.224 130.329 340.791 133.273C338.359 136.217 336.68 139.71 335.901 143.449C333.864 153.202 331.859 167.308 333.444 180.517C336.244 203.846 338.11 214.111 341.843 221.576C345.575 229.042 346.508 226.242 345.575 231.841C344.642 237.44 339.976 232.774 344.642 240.24C349.308 247.705 352.107 245.839 350.241 249.571C348.375 253.304 345.575 253.304 349.308 257.97C353.04 262.636 353.04 264.502 353.974 266.368C354.907 268.235 357.706 282.232 357.706 282.232C357.706 282.232 372.637 277.566 381.035 279.433C381.035 279.433 373.57 266.368 375.436 263.569C377.303 260.769 380.102 259.836 377.303 257.037C374.503 254.237 369.837 255.17 374.503 252.371C379.169 249.571 370.771 220.643 370.771 220.643L350.241 126.394Z" fill="#FCA311"/>
<path id="Vector_38" d="M871 641H-29V643H871V641Z" fill="#3F3D56"/>
<path id="Vector_39" d="M603.752 340.648L602.297 339.276L712.021 222.835H801.335V224.835H712.885L603.752 340.648Z" fill="#3F3D56"/>
<g id="lines">
<path id="Vector_40" d="M813.409 320H708V323.573H813.409V320Z" fill="#FCA311"/>
<path id="Vector_41" d="M814.409 298H709V301.573H814.409V298Z" fill="#FCA311"/>
<path id="Vector_42" d="M815.409 344H710V347.573H815.409V344Z" fill="#FCA311"/>
</g>
<g id="Frame_2">
<path id="Vector_43" d="M816.409 412H711V415.573H816.409V412Z" fill="#FCA311"/>
<path id="Vector_44" d="M817.409 390H712V393.573H817.409V390Z" fill="#FCA311"/>
<path id="Vector_45" d="M818.409 436H713V439.573H818.409V436Z" fill="#FCA311"/>
</g>
<path id="Vector_46" d="M790 511.199H684.475L684.177 510.766L602.177 391.766L603.823 390.632L685.525 509.199H790V511.199Z" fill="#3F3D56"/>
<g id="wheel-2">
<g id="g226">
<g id="g228">
<path id="path240" d="M236.184 522.73C236.491 523.162 237.034 523.338 237.536 523.168L251.88 518.322C257.151 522.92 263.192 526.664 269.847 529.318L272.382 544.477C272.471 545.007 272.88 545.414 273.399 545.488L291.128 547.98C291.647 548.054 292.161 547.777 292.408 547.292L299.504 533.487C306.682 532.779 313.614 530.859 320.077 527.911L332.308 536.493C332.736 536.793 333.309 536.774 333.734 536.445L348.318 525.207C348.743 524.878 348.928 524.312 348.778 523.797L344.47 509.106C349.07 503.536 352.858 497.19 355.607 490.245L370.358 487.215C370.872 487.108 371.278 486.676 371.361 486.138L374.256 467.752C374.339 467.213 374.085 466.689 373.627 466.444L360.445 459.488C359.956 452.086 358.284 444.974 355.602 438.381L364.244 425.51C364.545 425.06 364.544 424.469 364.238 424.033L353.744 409.271C353.44 408.842 352.897 408.666 352.391 408.834L338.05 413.678C332.778 409.08 326.737 405.338 320.083 402.684L317.548 387.524C317.46 386.991 317.05 386.587 316.536 386.513L298.802 384.021C298.288 383.947 297.77 384.223 297.522 384.708L290.427 398.511C283.247 399.223 276.313 401.142 269.854 404.091L257.623 395.509C257.194 395.21 256.621 395.226 256.194 395.556L241.613 406.792C241.186 407.122 241.001 407.689 241.153 408.202L245.458 422.895C240.861 428.466 237.072 434.811 234.323 441.756L219.573 444.786C219.056 444.893 218.652 445.325 218.567 445.863L215.674 464.249C215.59 464.787 215.843 465.311 216.306 465.555L229.484 472.513C229.975 479.913 231.647 487.026 234.329 493.621L225.687 506.491C225.384 506.942 225.387 507.535 225.694 507.966L236.184 522.73" fill="black"/>
</g>
</g>
<g id="Group 1">
<path id="path242" d="M296.467 482.163C301.282 481.314 305.644 477.993 307.718 472.998C309.254 469.29 309.317 465.225 307.896 461.551C306.475 457.878 303.738 455.034 300.189 453.544C292.864 450.47 284.324 454.195 281.145 461.845C279.609 465.553 279.546 469.618 280.967 473.292C282.387 476.967 285.125 479.81 288.674 481.3C291.217 482.367 293.905 482.614 296.467 482.163V482.163ZM291.981 449.682C295.066 449.14 298.301 449.438 301.363 450.723C305.63 452.514 308.924 455.936 310.636 460.358C312.347 464.779 312.266 469.67 310.416 474.13C306.597 483.339 296.317 487.823 287.504 484.122C283.233 482.33 279.939 478.908 278.227 474.486C276.516 470.064 276.597 465.174 278.447 460.713C280.94 454.702 286.19 450.705 291.981 449.682Z" fill="#FFFEFE"/>
<path id="path244" d="M288.413 421.572C289.896 421.31 291.397 421.125 292.918 421.015C295.891 420.808 298.924 420.905 301.979 421.335C321.757 424.115 336.418 440.013 339.131 459.418C339.761 463.938 339.744 468.649 338.994 473.429C337.063 485.682 330.651 496.556 320.931 504.045C311.216 511.535 299.355 514.745 287.542 513.085C279.523 511.958 272.02 508.603 265.848 503.388L267.749 501.013C273.514 505.885 280.522 509.016 288.016 510.071C299.056 511.624 310.132 508.622 319.214 501.626C328.291 494.627 334.287 484.47 336.084 473.02C336.788 468.554 336.804 464.152 336.215 459.929C333.683 441.802 319.985 426.95 301.501 424.346C278.717 421.144 257.151 437.766 253.432 461.399C253.294 462.273 253.182 463.149 253.097 464.026C252.942 465.591 252.87 467.16 252.88 468.72L252.88 468.824C252.883 469.035 252.886 469.246 252.89 469.456C252.899 469.84 252.913 470.224 252.932 470.606L249.991 470.841C249.831 467.578 250.011 464.263 250.525 460.991C253.754 440.476 269.548 424.895 288.413 421.572" fill="#FFFEFE"/>
</g>
</g>
<path id="Vector_47" d="M346.042 444.136C346.042 444.136 339.51 436.67 335.777 446.935C332.044 457.2 321.78 470.264 321.78 470.264C321.78 470.264 299.384 495.46 315.247 496.393C331.111 497.326 353.507 473.997 353.507 473.997L379.636 449.735C379.636 449.735 370.976 428.644 366.907 428.458C362.839 428.272 363.772 453.467 346.042 444.136Z" fill="#2F2E41"/>
<path id="Vector_48" d="M296.584 290.164C296.584 290.164 262.99 306.961 277.921 329.357C286.599 342.375 303.16 367.689 315.508 386.606C325.842 402.438 333.767 419.716 339.024 437.877L341.376 446.002L350.708 457.2L370.304 434.804C370.304 434.804 341.376 381.614 341.376 371.349C341.376 361.084 318.047 328.424 318.047 328.424L341.376 313.493C341.376 313.493 315.247 283.632 296.584 290.164Z" fill="#FFB9B9"/>
<g id="wheel-2_2">
<path id="Vector_49" d="M40.7465 678.148C41.0207 678.489 41.5057 678.627 41.9538 678.492L54.7456 674.644C59.4555 678.267 64.8504 681.214 70.7917 683.299L73.074 695.264C73.1538 695.682 73.5194 696.003 73.983 696.061L89.8049 698.002C90.2685 698.059 90.7265 697.84 90.9461 697.456L97.2597 686.546C103.663 685.976 109.846 684.45 115.609 682.112L126.534 688.87C126.916 689.106 127.427 689.09 127.806 688.83L140.804 679.935C141.183 679.674 141.347 679.227 141.213 678.821L137.349 667.228C141.446 662.823 144.818 657.807 147.261 652.319L160.42 649.905C160.877 649.819 161.239 649.478 161.312 649.053L163.871 634.532C163.944 634.106 163.717 633.693 163.308 633.5L151.537 628.027C151.091 622.184 149.589 616.571 147.188 611.37L154.881 601.194C155.149 600.839 155.148 600.372 154.874 600.028L145.491 588.388C145.219 588.05 144.734 587.912 144.283 588.046L131.493 591.892C126.783 588.27 121.388 585.324 115.447 583.238L113.165 571.272C113.086 570.852 112.719 570.534 112.261 570.476L96.4337 568.535C95.975 568.477 95.5131 568.696 95.2925 569.08L88.9801 579.988C82.5751 580.562 76.3904 582.087 70.6313 584.425L59.7059 577.668C59.3226 577.432 58.8118 577.446 58.431 577.707L45.4355 586.601C45.0552 586.862 44.8911 587.31 45.0272 587.714L48.8878 599.308C44.7936 603.714 41.4219 608.73 38.9782 614.217L25.821 616.632C25.36 616.717 25.0002 617.059 24.9251 617.484L22.3683 632.005C22.2937 632.43 22.5203 632.843 22.9333 633.035L34.7014 638.509C35.1495 644.351 36.6505 649.965 39.0526 655.168L31.3588 665.342C31.089 665.699 31.0922 666.167 31.3666 666.507L40.7465 678.148Z" fill="black"/>
<path id="Vector_50" d="M94.4813 646.027C98.7764 645.35 102.664 642.721 104.508 638.774C105.874 635.844 105.924 632.634 104.652 629.735C103.379 626.838 100.933 624.596 97.7641 623.425C91.2244 621.009 83.6089 623.963 80.783 630.008C79.417 632.938 79.3661 636.148 80.6389 639.046C81.9115 641.946 84.3578 644.187 87.5267 645.358C89.7976 646.196 92.1959 646.387 94.4813 646.027ZM90.4349 620.389C93.1871 619.956 96.074 620.186 98.8079 621.196C102.618 622.604 105.561 625.301 107.095 628.789C108.627 632.278 108.562 636.139 106.917 639.664C103.522 646.94 94.355 650.496 86.4865 647.588C82.6727 646.179 79.7292 643.482 78.1961 639.993C76.6632 636.504 76.7289 632.643 78.3737 629.118C80.59 624.368 85.269 621.205 90.4349 620.389Z" fill="#FFFEFE"/>
<path id="Vector_51" d="M87.2139 598.199C88.5369 597.991 89.8764 597.842 91.2325 597.753C93.8854 597.585 96.5918 597.657 99.3183 597.992C116.969 600.157 130.072 612.687 132.519 628.004C133.087 631.572 133.079 635.292 132.415 639.067C130.709 648.744 125.002 657.34 116.339 663.267C107.681 669.196 97.1017 671.748 86.5592 670.455C79.4026 669.578 72.7029 666.94 67.1894 662.832L68.8826 660.954C74.0329 664.792 80.2898 667.253 86.978 668.075C96.8307 669.284 106.71 666.897 114.804 661.36C122.894 655.82 128.23 647.792 129.818 638.749C130.44 635.221 130.449 631.746 129.918 628.412C127.634 614.104 115.392 602.398 98.8958 600.37C78.5615 597.876 59.3417 611.033 56.0547 629.698C55.9326 630.388 55.8342 631.08 55.7587 631.773C55.6233 633.008 55.5609 634.247 55.5716 635.479L55.5722 635.561C55.5746 635.728 55.5778 635.894 55.5822 636.06C55.5906 636.363 55.6034 636.666 55.6206 636.968L52.9968 637.158C52.8499 634.582 53.0058 631.964 53.4602 629.38C56.3138 613.177 70.3856 600.851 87.2139 598.199Z" fill="#FFFEFE"/>
</g>
</g>
<defs>
<clipPath id="clip0">
<rect width="937" height="643" fill="white"/>
</clipPath>
</defs>
</svg>
